HIERARCHY
ROOT joint_Root
{
	OFFSET 0.0 0.0 0.0
	CHANNELS 6 Xposition Yposition Zposition Zrotation Xrotation Yrotation 
	JOINT Hips
	{
		OFFSET -0.726466 93.3139 -2.00062
		CHANNELS 6 Xposition Yposition Zposition Zrotation Xrotation Yrotation 
		JOINT Spine
		{
			OFFSET 15.7357 0.0 0.0
			CHANNELS 6 Xposition Yposition Zposition Zrotation Xrotation Yrotation 
			JOINT Chest
			{
				OFFSET 8.98455 -0.406207 0.0
				CHANNELS 6 Xposition Yposition Zposition Zrotation Xrotation Yrotation 
				JOINT Neck
				{
					OFFSET 16.3773 0.0 0.0
					CHANNELS 6 Xposition Yposition Zposition Zrotation Xrotation Yrotation 
					JOINT Head
					{
						OFFSET 6.45672 0.0 0.0
						CHANNELS 6 Xposition Yposition Zposition Zrotation Xrotation Yrotation 
						End Site
						{
							OFFSET 0.0 0.0 0.0
						}
					}
				}
				JOINT Shoulder_L
				{
					OFFSET 12.9942 -0.242716 4.98039
					CHANNELS 6 Xposition Yposition Zposition Zrotation Xrotation Yrotation 
					JOINT UpperArm_L
					{
						OFFSET 5.34809 0.0 0.0
						CHANNELS 6 Xposition Yposition Zposition Zrotation Xrotation Yrotation 
						JOINT LowerArm_L
						{
							OFFSET 24.3286 1.87007e-05 0.0
							CHANNELS 6 Xposition Yposition Zposition Zrotation Xrotation Yrotation 
							JOINT Hand_L
							{
								OFFSET 22.2916 0.0 0.0
								CHANNELS 6 Xposition Yposition Zposition Zrotation Xrotation Yrotation 
								End Site
								{
									OFFSET 0.0 0.0 0.0
								}
							}
						}
					}
				}
				JOINT Shoulder_R
				{
					OFFSET 12.9945 -0.242716 -4.98039
					CHANNELS 6 Xposition Yposition Zposition Zrotation Xrotation Yrotation 
					JOINT UpperArm_R
					{
						OFFSET -5.34813 0.0 0.0
						CHANNELS 6 Xposition Yposition Zposition Zrotation Xrotation Yrotation 
						JOINT LowerArm_R
						{
							OFFSET -24.3289 0.000322201 0.0
							CHANNELS 6 Xposition Yposition Zposition Zrotation Xrotation Yrotation 
							JOINT Hand_R
							{
								OFFSET -22.2915 -0.000108084 0.0
								CHANNELS 6 Xposition Yposition Zposition Zrotation Xrotation Yrotation 
								End Site
								{
									OFFSET 0.0 0.0 0.0
								}
							}
						}
					}
				}
			}
		}
		JOINT UpperLeg_L
		{
			OFFSET -2.19248 -6.46944 0.0
			CHANNELS 6 Xposition Yposition Zposition Zrotation Xrotation Yrotation 
			JOINT LowerLeg_L
			{
				OFFSET 39.0811 0.0 -1.23785e-05
				CHANNELS 6 Xposition Yposition Zposition Zrotation Xrotation Yrotation 
				JOINT Foot_L
				{
					OFFSET 40.9854 0.0 -1.26872e-05
					CHANNELS 6 Xposition Yposition Zposition Zrotation Xrotation Yrotation 
					JOINT Toes_L
					{
						OFFSET 11.7543 0.0 0.0
						CHANNELS 6 Xposition Yposition Zposition Zrotation Xrotation Yrotation 
						End Site
						{
							OFFSET 0.0 0.0 0.0
						}
					}
				}
			}
		}
		JOINT UpperLeg_R
		{
			OFFSET -2.19251 6.46944 0.0
			CHANNELS 6 Xposition Yposition Zposition Zrotation Xrotation Yrotation 
			JOINT LowerLeg_R
			{
				OFFSET -39.0811 -0.00228153 -0.0401928
				CHANNELS 6 Xposition Yposition Zposition Zrotation Xrotation Yrotation 
				JOINT Foot_R
				{
					OFFSET -40.9854 0.0 0.0
					CHANNELS 6 Xposition Yposition Zposition Zrotation Xrotation Yrotation 
					JOINT Toes_R
					{
						OFFSET -11.7543 0.0 0.0
						CHANNELS 6 Xposition Yposition Zposition Zrotation Xrotation Yrotation 
						End Site
						{
							OFFSET 0.0 0.0 0.0
						}
					}
				}
			}
		}
	}
}
MOTION
Frames:	9
Frame Time:	0.0333333
0.000000 0.000000 0.000000 0.000000 0.000000 -0.000000 -0.694601 93.003800 -2.019540 89.124500 -3.210380 1.943410 15.735700 0.000005 -0.000001 92.060400 86.653000 -91.878200 8.984550 -0.406207 -0.000000 -1.076640 0.226566 0.366249 16.377300 -0.000001 -0.000001 1.862840 -1.639580 1.724810 6.456720 -0.000001 -0.000000 8.036070 -0.564051 -3.408450 12.994200 -0.242716 4.980390 -90.088000 0.262295 -71.446000 5.348090 -0.000007 -0.000001 -68.777400 40.032800 -11.834400 24.328600 0.000019 0.000005 3.647950 9.403250 -21.316400 22.291600 -0.000001 0.000005 3.701590 5.456140 -4.858100 12.994500 -0.242716 -4.980390 87.541900 7.712640 -72.262300 -5.348130 -0.000001 -0.000004 -65.544600 37.529000 -10.439200 -24.328900 0.000322 -0.000009 2.929050 8.761630 -18.573600 -22.291500 -0.000108 -0.000004 8.947100 5.382220 -2.368310 -2.192480 -6.469440 -0.000000 -177.006000 -10.211900 -3.201230 39.081100 -0.000007 -0.000012 -0.057459 0.183507 17.386000 40.985400 -0.000006 -0.000013 -0.126587 3.557340 -62.330400 11.754300 -0.000000 0.000003 -0.000001 -0.000008 -16.577800 -2.192510 6.469440 -0.000001 179.138000 10.872500 179.086000 -39.081100 -0.002282 -0.040193 -0.049157 0.201415 14.606300 -40.985400 0.000008 0.000006 0.864166 6.529780 -61.989000 -11.754300 -0.000006 -0.000006 -0.006635 -0.076494 -19.686800
0.000000 0.000000 0.000000 0.000000 0.000000 -0.000000 -0.681633 93.010000 -2.047730 89.132100 -3.217340 1.944660 15.735700 0.000005 -0.000001 92.427200 86.636500 -92.180300 8.984550 -0.406207 -0.000000 -1.045530 0.265847 0.495851 16.377300 -0.000001 -0.000001 1.735940 -1.630310 1.658370 6.456720 -0.000001 -0.000000 7.845120 -0.680160 -3.445110 12.994200 -0.242716 4.980390 -90.109400 0.323865 -71.341200 5.348090 -0.000007 -0.000001 -67.008700 39.209200 -13.532200 24.328600 0.000019 0.000005 4.303320 11.016900 -21.492500 22.291600 -0.000001 0.000005 1.044940 5.458860 -4.959410 12.994500 -0.242716 -4.980390 87.573000 7.606090 -72.243900 -5.348130 -0.000001 -0.000004 -65.757600 37.088300 -10.287600 -24.328900 0.000322 -0.000009 2.940220 8.802290 -18.560000 -22.291500 -0.000108 -0.000004 9.063300 5.382250 -2.369200 -2.192480 -6.469440 -0.000000 -177.026000 -10.187700 -3.192500 39.081100 -0.000007 -0.000012 -0.057118 0.182983 17.335700 40.985400 -0.000006 -0.000013 -0.125141 3.520480 -62.289700 11.754300 -0.000000 0.000003 -0.000001 -0.000010 -16.577800 -2.192510 6.469440 -0.000001 179.127000 10.896600 179.084000 -39.081100 -0.002282 -0.040193 -0.048498 0.199385 14.571400 -40.985400 0.000008 0.000006 0.864789 6.570060 -61.951000 -11.754300 -0.000006 -0.000006 -0.006489 -0.075213 -19.634600
0.000000 0.000000 0.000000 0.000000 0.000000 -0.000000 -0.685253 93.012700 -2.089430 89.125000 -3.248170 1.928880 15.735700 0.000005 -0.000001 93.476400 86.620800 -93.152800 8.984550 -0.406207 -0.000000 -1.021170 0.384915 0.650447 16.377300 -0.000001 -0.000001 1.614100 -1.590640 1.480560 6.456720 -0.000001 -0.000000 7.601980 -0.783984 -3.414370 12.994200 -0.242716 4.980390 -90.081000 0.236589 -71.105900 5.348090 -0.000007 -0.000001 -64.371400 37.070300 -16.155700 24.328600 0.000019 0.000005 4.877870 12.173400 -22.032900 22.291600 -0.000001 0.000005 -2.385810 5.444530 -4.432070 12.994500 -0.242716 -4.980390 87.583900 7.543360 -72.181900 -5.348130 -0.000001 -0.000004 -65.928400 36.587800 -10.053400 -24.328900 0.000322 -0.000009 2.930610 8.696680 -18.710900 -22.291500 -0.000108 -0.000004 9.086810 5.380930 -2.327710 -2.192480 -6.469440 -0.000000 -177.021000 -10.214100 -3.237640 39.081100 -0.000007 -0.000012 -0.057971 0.185670 17.339700 40.985400 -0.000006 -0.000013 -0.126918 3.516730 -62.262800 11.754300 -0.000000 0.000003 -0.000001 -0.000018 -16.578200 -2.192510 6.469440 -0.000001 179.136000 10.929800 179.038000 -39.081100 -0.002282 -0.040193 -0.049047 0.201515 14.570000 -40.985400 0.000008 0.000006 0.874179 6.631510 -61.919700 -11.754300 -0.000006 -0.000006 -0.006424 -0.074635 -19.611000
0.000000 0.000000 0.000000 0.000000 0.000000 -0.000000 -0.711815 93.027100 -2.160100 89.116400 -3.124680 1.923210 15.735700 0.000005 -0.000001 93.896600 86.601300 -93.482100 8.984550 -0.406207 -0.000000 -0.985771 0.430176 0.832337 16.377300 -0.000001 -0.000001 1.518850 -1.499880 1.130120 6.456720 -0.000001 -0.000000 7.319290 -0.975191 -3.303410 12.994200 -0.242716 4.980390 -89.942900 -0.163643 -70.767000 5.348090 -0.000007 -0.000001 -61.627200 32.852800 -19.254300 24.328600 0.000019 0.000005 4.774770 11.485000 -22.758800 22.291600 -0.000001 0.000005 -4.926280 5.407510 -3.177100 12.994500 -0.242716 -4.980390 87.604300 7.474190 -72.170700 -5.348130 -0.000001 -0.000004 -66.120300 36.045800 -9.846500 -24.328900 0.000322 -0.000009 2.970250 8.790700 -18.759500 -22.291500 -0.000108 -0.000004 9.132360 5.381020 -2.330670 -2.192480 -6.469440 -0.000000 -177.000000 -10.139900 -3.270740 39.081100 -0.000007 -0.000012 -0.057238 0.184258 17.256800 40.985400 -0.000006 -0.000013 -0.139558 3.573450 -62.155000 11.754300 -0.000000 0.000003 -0.000001 -0.000011 -16.577900 -2.192510 6.469440 -0.000001 179.169000 11.090000 179.063000 -39.081100 -0.002282 -0.040193 -0.047504 0.197386 14.442400 -40.985400 0.000008 0.000006 0.900194 6.675360 -61.826600 -11.754300 -0.000006 -0.000006 -0.006550 -0.075754 -19.656600
0.000000 0.000000 0.000000 0.000000 0.000000 -0.000000 -0.743955 93.039900 -2.226030 89.141300 -2.970590 1.922260 15.735700 0.000005 -0.000001 94.239800 86.602200 -93.717900 8.984550 -0.406207 -0.000000 -0.990834 0.462442 1.047330 16.377300 -0.000001 -0.000001 1.567560 -1.470950 0.728850 6.456720 -0.000001 -0.000000 6.949950 -1.088370 -3.451150 12.994200 -0.242716 4.980390 -89.743200 -0.726075 -70.521700 5.348090 -0.000007 -0.000001 -58.677200 27.107000 -22.745400 24.328600 0.000019 0.000005 4.564940 10.469300 -23.720500 22.291600 -0.000001 0.000005 -6.102340 5.379700 -2.287690 12.994500 -0.242716 -4.980390 87.633500 7.327570 -72.046300 -5.348130 -0.000001 -0.000004 -66.258500 35.639500 -9.753510 -24.328900 0.000322 -0.000009 2.999680 8.892580 -18.732300 -22.291500 -0.000108 -0.000004 9.216940 5.378190 -2.241230 -2.192480 -6.469440 -0.000000 -177.012000 -10.030500 -3.282910 39.081100 -0.000007 -0.000012 -0.056550 0.183286 17.146600 40.985400 -0.000006 -0.000013 -0.152863 3.632780 -62.039700 11.754300 -0.000000 0.000003 -0.000001 -0.000017 -16.578200 -2.192510 6.469440 -0.000001 179.168000 11.297500 179.066000 -39.081100 -0.002282 -0.040193 -0.046725 0.195352 14.372000 -40.985400 0.000008 0.000006 0.929996 6.708060 -61.763900 -11.754300 -0.000006 -0.000006 -0.006619 -0.076359 -19.681300
0.000000 0.000000 0.000000 0.000000 0.000000 -0.000000 -0.800774 93.050600 -2.310860 89.168400 -2.683810 1.876320 15.735700 0.000005 -0.000001 93.933700 86.621200 -93.311000 8.984550 -0.406207 -0.000000 -1.026410 0.415711 1.248670 16.377300 -0.000001 -0.000001 1.604990 -1.448300 0.402839 6.456720 -0.000001 -0.000000 6.550910 -1.101530 -3.711810 12.994200 -0.242716 4.980390 -89.558500 -1.235560 -70.334000 5.348090 -0.000007 -0.000001 -54.973300 20.693400 -26.784900 24.328600 0.000019 0.000005 4.697810 10.046800 -25.223200 22.291600 -0.000001 0.000005 -5.648280 5.378270 -2.243390 12.994500 -0.242716 -4.980390 87.655500 7.175810 -71.853100 -5.348130 -0.000001 -0.000004 -66.461200 35.081400 -9.676620 -24.328900 0.000322 -0.000009 3.041390 9.038290 -18.692400 -22.291500 -0.000108 -0.000004 9.361330 5.376740 -2.196320 -2.192480 -6.469440 -0.000000 -177.016000 -9.930380 -3.388780 39.081100 -0.000007 -0.000012 -0.056249 0.183183 17.069900 40.985400 -0.000006 -0.000013 -0.161896 3.810340 -61.911500 11.754300 -0.000000 0.000003 -0.000001 -0.000009 -16.577800 -2.192510 6.469440 -0.000001 179.200000 11.514100 178.995000 -39.081100 -0.002282 -0.040193 -0.046191 0.193735 14.338900 -40.985400 0.000008 0.000006 0.964982 6.631020 -61.714200 -11.754300 -0.000006 -0.000006 -0.006536 -0.075631 -19.651600
0.000000 0.000000 0.000000 0.000000 0.000000 -0.000000 -0.875928 93.064400 -2.366830 89.198800 -2.450340 1.945520 15.735700 0.000005 -0.000001 93.605000 86.605800 -92.918400 8.984550 -0.406207 -0.000000 -0.992887 0.374279 1.376050 16.377300 -0.000001 -0.000001 1.602390 -1.508360 0.280880 6.456720 -0.000001 -0.000000 6.124020 -1.077570 -3.950610 12.994200 -0.242716 4.980390 -89.360800 -1.752720 -69.961600 5.348090 -0.000007 -0.000001 -51.017000 13.576300 -31.275100 24.328600 0.000019 0.000005 4.889470 9.699820 -26.918400 22.291600 -0.000001 0.000005 -4.468370 5.381740 -2.354040 12.994500 -0.242716 -4.980390 87.650400 7.073420 -71.571900 -5.348130 -0.000001 -0.000004 -66.495200 34.756100 -9.663860 -24.328900 0.000322 -0.000009 3.033800 8.980010 -18.760700 -22.291500 -0.000108 -0.000004 9.341890 5.377260 -2.212500 -2.192480 -6.469440 -0.000000 -176.985000 -9.882150 -3.312360 39.081100 -0.000007 -0.000012 -0.055037 0.180808 16.929700 40.985400 -0.000006 -0.000013 -0.186077 3.996160 -61.779900 11.754300 -0.000000 0.000003 -0.000001 -0.000008 -16.577800 -2.192510 6.469440 -0.000001 179.200000 11.742400 179.101000 -39.081100 -0.002282 -0.040193 -0.046400 0.195928 14.242400 -40.985400 0.000008 0.000006 1.004210 6.593010 -61.660000 -11.754300 -0.000006 -0.000006 -0.006723 -0.077269 -19.718500
0.000000 0.000000 0.000000 0.000000 0.000000 -0.000000 -0.958658 93.076800 -2.422930 89.204700 -2.360250 1.861610 15.735700 0.000005 -0.000001 93.111800 86.647500 -92.356100 8.984550 -0.406207 -0.000000 -1.072540 0.305633 1.513570 16.377300 -0.000001 -0.000001 1.537050 -1.531510 0.147058 6.456720 -0.000001 -0.000000 5.748120 -1.117760 -4.082130 12.994200 -0.242716 4.980390 -89.080300 -2.500580 -69.798500 5.348090 -0.000007 -0.000001 -47.516600 5.709850 -35.495300 24.328600 0.000019 0.000005 4.578540 8.545340 -28.322800 22.291600 -0.000001 0.000005 -3.110690 5.377480 -2.219500 12.994500 -0.242716 -4.980390 87.674800 6.933480 -71.409200 -5.348130 -0.000001 -0.000004 -66.499800 34.415600 -9.665750 -24.328900 0.000322 -0.000009 3.067560 9.013970 -18.889100 -22.291500 -0.000108 -0.000004 9.428350 5.379350 -2.277840 -2.192480 -6.469440 -0.000000 -176.946000 -9.889570 -3.390890 39.081100 -0.000007 -0.000012 -0.054994 0.181934 16.818500 40.985400 -0.000006 -0.000013 -0.235322 4.091340 -61.668600 11.754300 -0.000000 0.000003 -0.000000 -0.000007 -16.577700 -2.192510 6.469440 -0.000001 179.287000 11.804000 179.020000 -39.081100 -0.002282 -0.040193 -0.044917 0.191279 14.157200 -40.985400 0.000008 0.000006 1.063310 6.547930 -61.593500 -11.754300 -0.000006 -0.000006 -0.006453 -0.074897 -19.621600
0.000000 0.000000 0.000000 0.000000 0.000000 -0.000000 -1.044020 93.094300 -2.460810 89.186000 -2.429680 1.738480 15.735700 0.000005 -0.000001 92.471300 86.703800 -91.675100 8.984550 -0.406207 -0.000000 -1.180810 0.222054 1.594170 16.377300 -0.000001 -0.000001 1.420710 -1.599460 0.147221 6.456720 -0.000001 -0.000000 5.323550 -1.156880 -4.028050 12.994200 -0.242716 4.980390 -88.722800 -3.437280 -69.601600 5.348090 -0.000007 -0.000001 -44.706400 -2.878170 -39.684600 24.328600 0.000019 0.000005 4.263060 7.637800 -29.285600 22.291600 -0.000001 0.000005 -2.197230 5.369190 -1.961390 12.994500 -0.242716 -4.980390 87.679600 6.876800 -71.302900 -5.348130 -0.000001 -0.000004 -66.423800 33.955100 -9.609270 -24.328900 0.000322 -0.000009 3.141700 9.097910 -19.149100 -22.291500 -0.000108 -0.000004 9.433820 5.380670 -2.319340 -2.192480 -6.469440 -0.000000 -176.893000 -9.904060 -3.460550 39.081100 -0.000007 -0.000012 -0.054895 0.183355 16.667200 40.985400 -0.000006 -0.000013 -0.306951 4.049800 -61.559200 11.754300 -0.000000 0.000003 -0.000000 -0.000005 -16.577700 -2.192510 6.469440 -0.000001 179.396000 11.872500 178.962000 -39.081100 -0.002282 -0.040193 -0.043260 0.187283 13.970300 -40.985400 0.000008 0.000006 1.137370 6.653080 -61.487400 -11.754300 -0.000006 -0.000006 -0.006673 -0.076834 -19.700700
